<svg width="97.048096" height="51.313965" viewBox="0 0 97.0481 51.314" fill="none" xmlns="http://www.w3.org/2000/svg" xmlns:xlink="http://www.w3.org/1999/xlink">
	<desc>
			Created with Pixso.
	</desc>
	<defs/>
	<path id="Fill 1" d="M36.09 0.25C35.54 0.25 35.09 0.69 35.09 1.25L35.09 5.52C35.09 6.07 35.54 6.52 36.09 6.52L72.42 6.52C82.54 6.52 90.5 14.32 90.5 24.41L90.5 24.41C90.5 24.7 90.73 24.93 91.01 24.93L96.28 24.93C96.56 24.93 96.79 24.7 96.79 24.41L96.79 24.41C96.79 10.92 85.95 0.25 72.42 0.25L36.09 0.25Z" fill="#6B7B84" fill-opacity="1.000000" fill-rule="evenodd"/>
	<path id="Fill 1" d="M35.09 5.52C35.09 6.07 35.54 6.52 36.09 6.52L72.42 6.52C82.54 6.52 90.5 14.32 90.5 24.41C90.5 24.7 90.73 24.93 91.01 24.93L96.28 24.93C96.56 24.93 96.79 24.7 96.79 24.41C96.79 10.92 85.95 0.25 72.42 0.25L36.09 0.25C35.54 0.25 35.09 0.69 35.09 1.25L35.09 5.52Z" stroke="#80949F" stroke-opacity="1.000000" stroke-width="0.500000"/>
	<path id="Fill 3" d="M6.63 25.36L6.63 25.36C6.63 25.12 6.43 24.93 6.19 24.93L0.68 24.93C0.44 24.93 0.25 25.12 0.25 25.36L0.25 25.36C0.25 39.01 10.47 50.28 23.69 51.02L66.03 51.06C66.58 51.06 67.03 50.61 67.03 50.06L67.03 45.48C67.03 44.93 66.58 44.48 66.03 44.48L25.15 44.48C14.91 44.45 6.63 35.94 6.63 25.36Z" fill="#6B7B84" fill-opacity="1.000000" fill-rule="evenodd"/>
	<path id="Fill 3" d="M0.68 24.93C0.44 24.93 0.25 25.12 0.25 25.36C0.25 39.01 10.47 50.28 23.69 51.02L66.03 51.06C66.58 51.06 67.03 50.61 67.03 50.06L67.03 45.48C67.03 44.93 66.58 44.48 66.03 44.48L25.15 44.48C14.91 44.45 6.63 35.94 6.63 25.36C6.63 25.12 6.43 24.93 6.19 24.93L0.68 24.93Z" stroke="#80949F" stroke-opacity="1.000000" stroke-width="0.500000"/>
	<path id="Fill 5" d="M27.66 39.45C30.4 39.45 32.68 38.91 34.93 37.82L35.09 37.67L35.09 29.84L34.25 30.92C32.62 32.69 30.45 33.67 27.98 33.67C23.39 33.67 18.78 30.7 18.78 25.03C18.78 20.74 21.96 16.18 27.82 16.18C28.99 16.18 31.83 16.46 34.24 19.02L35.09 20.06L35.09 12.27L34.94 12.12C32.64 10.97 30.3 10.41 27.63 10.41C23.07 10.41 19.5 11.61 16.66 14.08C14.86 15.63 11.86 19.1 11.86 24.95C11.86 29.27 13.4 32.64 16.69 35.57C19.74 38.25 23.14 39.45 27.66 39.45Z" fill="#6B7B84" fill-opacity="1.000000" fill-rule="evenodd"/>
	<path id="Fill 5" d="M34.93 37.82L35.09 37.67L35.09 29.84L34.25 30.92C32.62 32.69 30.45 33.67 27.98 33.67C23.39 33.67 18.78 30.7 18.78 25.03C18.78 20.74 21.96 16.18 27.82 16.18C28.99 16.18 31.83 16.46 34.24 19.02L35.09 20.06L35.09 12.27L34.94 12.12C32.64 10.97 30.3 10.41 27.63 10.41C23.07 10.41 19.5 11.61 16.66 14.08C14.86 15.63 11.86 19.1 11.86 24.95C11.86 29.27 13.4 32.64 16.69 35.57C19.74 38.25 23.14 39.45 27.66 39.45C30.4 39.45 32.68 38.91 34.93 37.82Z" stroke="#80949F" stroke-opacity="1.000000" stroke-width="0.500000"/>
	<mask id="mask_0_1926" fill="white">
		<path id="Fill 6" d="M58.0186 26.7876C56.262 28.5435 53.7324 29.4756 50.5012 29.4756L47.5608 29.4756L47.5608 39.4502L40.9021 39.4502L40.9021 10.4131L49.6565 10.4131C52.9385 10.4131 55.2649 10.8906 57.4453 12.8013C60.1055 15.1643 60.5022 18.428 60.5022 20.1013C60.5022 21.665 60.1792 24.6313 58.0186 26.7876ZM47.4355 16.9465L48.7998 16.9465C50.0513 16.9465 51.4775 17.0146 52.5571 17.7505C53.0842 18.1272 53.9688 18.9988 53.9688 20.5823C53.9688 21.7522 53.4517 22.8013 52.5977 23.4561C51.5583 24.2104 50.333 24.2078 49.3169 24.2053C49.2625 24.2053 49.2085 24.2051 49.1553 24.2051L47.4355 24.2051L47.4355 16.9465Z" clip-rule="evenodd" fill="" fill-opacity="1.000000" fill-rule="evenodd"/>
	</mask>
	<path id="Fill 6" d="M58.0186 26.7876C56.262 28.5435 53.7324 29.4756 50.5012 29.4756L47.5608 29.4756L47.5608 39.4502L40.9021 39.4502L40.9021 10.4131L49.6565 10.4131C52.9385 10.4131 55.2649 10.8906 57.4453 12.8013C60.1055 15.1643 60.5022 18.428 60.5022 20.1013C60.5022 21.665 60.1792 24.6313 58.0186 26.7876ZM47.4355 16.9465L48.7998 16.9465C50.0513 16.9465 51.4775 17.0146 52.5571 17.7505C53.0842 18.1272 53.9688 18.9988 53.9688 20.5823C53.9688 21.7522 53.4517 22.8013 52.5977 23.4561C51.5583 24.2104 50.333 24.2078 49.3169 24.2053C49.2625 24.2053 49.2085 24.2051 49.1553 24.2051L47.4355 24.2051L47.4355 16.9465Z" clip-rule="evenodd" fill="#6B7B84" fill-opacity="1.000000" fill-rule="evenodd" mask="url(#mask_0_1926)"/>
	<path id="Fill 6" d="M58.1953 26.9644Q56.8303 28.3289 54.8977 29.0251Q52.9541 29.7256 50.5012 29.7256L47.5608 29.7256L47.5608 29.4756L47.8108 29.4756L47.8108 39.7002L40.6521 39.7002L40.6521 10.1631L49.6565 10.1631Q50.9653 10.1631 51.9775 10.2688Q53.1011 10.3865 54.0322 10.6501Q55.0227 10.9307 55.8894 11.4023Q56.7837 11.8889 57.6101 12.6133Q59.4209 14.2217 60.209 16.6323Q60.5103 17.5537 60.6462 18.5532Q60.7522 19.3303 60.7522 20.1013Q60.7522 21.7737 60.3105 23.292Q59.6711 25.4915 58.1951 26.9646L58.1953 26.9644ZM57.8418 26.6106Q59.2268 25.2285 59.8306 23.1523Q60.2522 21.7024 60.2522 20.1013Q60.2522 19.3643 60.1509 18.6208Q60.0208 17.666 59.7336 16.7876Q58.9878 14.5056 57.2805 12.9893Q56.4958 12.3018 55.6504 11.8416Q54.8328 11.3965 53.8958 11.1311Q53.0063 10.8792 51.9255 10.7661Q50.9392 10.6631 49.6565 10.6631L40.9021 10.6631L40.9021 10.4131L41.1521 10.4131L41.1521 39.4502L40.9021 39.4502L40.9021 39.2002L47.5608 39.2002L47.5608 39.4502L47.3108 39.4502L47.3108 29.2256L50.5012 29.2256Q52.8667 29.2256 54.728 28.5549Q56.5557 27.8962 57.8418 26.6108L57.8418 26.6106ZM47.4355 16.6965L48.7998 16.6965Q49.3655 16.6965 49.7766 16.719Q50.3279 16.7493 50.7844 16.8259Q51.9268 17.0183 52.698 17.5439Q53.293 17.969 53.6731 18.582Q54.2188 19.4622 54.2188 20.5823Q54.2188 21.5105 53.8289 22.3208Q53.4424 23.1235 52.7498 23.6543L52.7471 23.6562L52.7446 23.6582Q52.009 24.1921 50.9895 24.3611Q50.6001 24.4255 50.1223 24.4451Q49.8428 24.4565 49.3162 24.4553L49.1548 24.4551L47.1855 24.4551L47.1855 16.6965L47.4355 16.6965ZM47.4355 17.1965L47.4355 16.9465L47.6855 16.9465L47.6855 24.2051L47.4355 24.2051L47.4355 23.9551L49.1555 23.9551L49.3174 23.9553Q49.8333 23.9565 50.1018 23.9456Q50.5488 23.9272 50.9077 23.8677Q51.811 23.718 52.4507 23.2537L52.5977 23.4561L52.4456 23.2576Q53.0435 22.7991 53.3782 22.104Q53.7188 21.3962 53.7188 20.5823Q53.7188 19.6045 53.248 18.8455Q52.9209 18.3176 52.4163 17.957Q51.7356 17.4932 50.7014 17.3191Q49.9727 17.1965 48.7998 17.1965L47.4355 17.1965Z" fill="#80949F" fill-opacity="1.000000" fill-rule="nonzero"/>
	<path id="Fill 7" d="M80.47 24.12C79.02 22.84 77 22.1 74.71 21.32C73.08 20.76 72.18 20.44 71.58 19.89C71.1 19.49 70.89 19.06 70.89 18.48C70.89 17.21 71.75 15.86 74.16 15.86C75.8 15.86 77.17 16.56 78.24 17.95L78.66 18.49L82.18 14.02L81.86 13.7C79.71 11.55 76.87 10.41 73.66 10.41C67.18 10.41 64.28 14.62 64.28 18.8C64.28 21.04 65.08 22.85 66.66 24.17C68.06 25.38 69.78 26.05 71.42 26.6L71.61 26.67C73.07 27.15 74.58 27.65 75.49 28.46C76.11 29.03 76.39 29.66 76.39 30.49C76.39 32.39 74.9 33.67 72.67 33.67C70.91 33.67 68.59 32.8 67.37 30.38L67.05 29.75L62.67 33.79L62.93 34.16C64.33 36.13 67.47 39.45 72.88 39.45C78.84 39.45 83 35.61 83 30.13C83 26.99 81.62 25.13 80.47 24.12Z" fill="#6B7B84" fill-opacity="1.000000" fill-rule="evenodd"/>
	<path id="Fill 7" d="M74.71 21.32C73.08 20.76 72.18 20.44 71.58 19.89C71.1 19.49 70.89 19.06 70.89 18.48C70.89 17.21 71.75 15.86 74.16 15.86C75.8 15.86 77.17 16.56 78.24 17.95L78.66 18.49L82.18 14.02L81.86 13.7C79.71 11.55 76.87 10.41 73.66 10.41C67.18 10.41 64.28 14.62 64.28 18.8C64.28 21.04 65.08 22.85 66.66 24.17C68.06 25.38 69.78 26.05 71.42 26.6L71.61 26.67C73.07 27.15 74.58 27.65 75.49 28.46C76.11 29.03 76.39 29.66 76.39 30.49C76.39 32.39 74.9 33.67 72.67 33.67C70.91 33.67 68.59 32.8 67.37 30.38L67.05 29.75L62.67 33.79L62.93 34.16C64.33 36.13 67.47 39.45 72.88 39.45C78.84 39.45 83 35.61 83 30.13C83 26.99 81.62 25.13 80.47 24.12C79.02 22.84 77 22.1 74.71 21.32Z" stroke="#80949F" stroke-opacity="1.000000" stroke-width="0.500000"/>
</svg>
