<svg width="17.058105" height="17.058105" viewBox="0 0 17.0581 17.0581" fill="none" xmlns="http://www.w3.org/2000/svg" xmlns:xlink="http://www.w3.org/1999/xlink">
	<desc>
			Created with Pixso.
	</desc>
	<defs/>
	<path id="icon" d="M12.5007 11.0007L11.7107 11.0007L11.4307 10.7307C12.6306 9.33057 13.2507 7.42065 12.9106 5.39062C12.4407 2.6106 10.1206 0.390625 7.32056 0.0505371C3.09058 -0.469482 -0.469482 3.09058 0.0505371 7.32056C0.390625 10.1206 2.6106 12.4407 5.39062 12.9106C7.42065 13.2507 9.33057 12.6306 10.7307 11.4307L11.0007 11.7107L11.0007 12.5007L15.2607 16.7507C15.6707 17.1606 16.3306 17.1606 16.7407 16.7507L16.7507 16.7407C17.1606 16.3306 17.1606 15.6707 16.7507 15.2607L12.5007 11.0007ZM2.00073 6.50073C2.00073 8.99072 4.01074 11.0007 6.50073 11.0007C8.99072 11.0007 11.0007 8.99072 11.0007 6.50073C11.0007 4.01074 8.99072 2.00073 6.50073 2.00073C4.01074 2.00073 2.00073 4.01074 2.00073 6.50073Z" clip-rule="evenodd" fill="#FFFFFF" fill-opacity="1.000000" fill-rule="evenodd"/>
</svg>
